<svg width="182" height="182" viewBox="0 0 182 182" fill="none" xmlns="http://www.w3.org/2000/svg">
<circle cx="91" cy="91" r="91" fill="#10436F"/>
<rect x="46" y="56" width="90" height="24" rx="10" fill="#EFDCEF"/>
<path d="M64 132L70 132L70 140C70 140.552 69.5523 141 69 141L65 141C64.4477 141 64 140.552 64 140L64 132Z" fill="white"/>
<path d="M66 124.587C66 123.673 67.1251 123.238 67.7399 123.914L71 127.5L74.4794 131.327C75.0634 131.97 74.6076 133 73.7394 133L67 133C66.4477 133 66 132.552 66 132L66 124.587Z" fill="white"/>
<path d="M63 127.5L66.2601 123.914C66.8749 123.238 68 123.673 68 124.587L68 132C68 132.552 67.5523 133 67 133L60.2606 133C59.3924 133 58.9366 131.97 59.5206 131.327L63 127.5Z" fill="white"/>
<path d="M88 132L94 132L94 140C94 140.552 93.5523 141 93 141L89 141C88.4477 141 88 140.552 88 140L88 132Z" fill="white"/>
<path d="M90 124.587C90 123.673 91.1251 123.238 91.7399 123.914L95 127.5L98.4794 131.327C99.0634 131.97 98.6076 133 97.7394 133L91 133C90.4477 133 90 132.552 90 132L90 124.587Z" fill="white"/>
<path d="M87 127.5L90.2601 123.914C90.8749 123.238 92 123.673 92 124.587L92 132C92 132.552 91.5523 133 91 133L84.2606 133C83.3924 133 82.9366 131.97 83.5206 131.327L87 127.5Z" fill="white"/>
<path d="M112 132L118 132L118 140C118 140.552 117.552 141 117 141L113 141C112.448 141 112 140.552 112 140L112 132Z" fill="white"/>
<path d="M114 124.587C114 123.673 115.125 123.238 115.74 123.914L119 127.5L122.479 131.327C123.063 131.97 122.608 133 121.739 133L115 133C114.448 133 114 132.552 114 132L114 124.587Z" fill="white"/>
<path d="M111 127.5L114.26 123.914C114.875 123.238 116 123.673 116 124.587L116 132C116 132.552 115.552 133 115 133L108.261 133C107.392 133 106.937 131.97 107.521 131.327L111 127.5Z" fill="white"/>
<rect x="121" y="116" width="60" height="6" rx="1" transform="rotate(-180 121 116)" fill="white"/>
<rect x="115" y="104" width="48" height="6" rx="1" transform="rotate(-180 115 104)" fill="white"/>
<rect x="109" y="92" width="36" height="6" rx="1" transform="rotate(-180 109 92)" fill="white"/>
</svg>
