<svg width="182" height="182" viewBox="0 0 182 182" fill="none" xmlns="http://www.w3.org/2000/svg">
<circle cx="91" cy="91" r="91" fill="#10436F"/>
<path d="M70 112L64 112L64 74L70 74L70 112Z" fill="white"/>
<path fill-rule="evenodd" clip-rule="evenodd" d="M67 117C65.3431 117 64 118.343 64 120C64 121.657 65.3431 123 67 123C68.6569 123 70 121.657 70 120C70 118.343 68.6569 117 67 117ZM67 111C62.0294 111 58 115.029 58 120C58 124.971 62.0294 129 67 129C71.9706 129 76 124.971 76 120C76 115.029 71.9706 111 67 111Z" fill="white"/>
<rect x="70" y="141" width="6" height="6" rx="1" transform="rotate(-180 70 141)" fill="white"/>
<rect x="52" y="123" width="6" height="6" rx="1" transform="rotate(-180 52 123)" fill="white"/>
<rect x="54.2725" y="111.515" width="6" height="6" rx="1" transform="rotate(-135 54.2725 111.515)" fill="white"/>
<rect x="58.5146" y="132.728" width="6" height="6" rx="1" transform="rotate(135 58.5146 132.728)" fill="white"/>
<rect x="88" y="123" width="6" height="6" rx="1" transform="rotate(-180 88 123)" fill="white"/>
<rect x="79.7275" y="136.971" width="6" height="6" rx="1" transform="rotate(-135 79.7275 136.971)" fill="white"/>
<rect x="83.9707" y="107.272" width="6" height="6" rx="1" transform="rotate(135 83.9707 107.272)" fill="white"/>
<path d="M118 103L112 103L112 65L118 65L118 103Z" fill="white"/>
<path fill-rule="evenodd" clip-rule="evenodd" d="M115 108C113.343 108 112 109.343 112 111C112 112.657 113.343 114 115 114C116.657 114 118 112.657 118 111C118 109.343 116.657 108 115 108ZM115 102C110.029 102 106 106.029 106 111C106 115.971 110.029 120 115 120C119.971 120 124 115.971 124 111C124 106.029 119.971 102 115 102Z" fill="white"/>
<rect x="118" y="132" width="6" height="6" rx="1" transform="rotate(-180 118 132)" fill="white"/>
<rect x="100" y="114" width="6" height="6" rx="1" transform="rotate(-180 100 114)" fill="white"/>
<rect x="102.272" y="102.515" width="6" height="6" rx="1" transform="rotate(-135 102.272 102.515)" fill="white"/>
<rect x="106.515" y="123.728" width="6" height="6" rx="1" transform="rotate(135 106.515 123.728)" fill="white"/>
<rect x="136" y="114" width="6" height="6" rx="1" transform="rotate(-180 136 114)" fill="white"/>
<rect x="127.728" y="127.971" width="6" height="6" rx="1" transform="rotate(-135 127.728 127.971)" fill="white"/>
<rect x="131.971" y="98.2725" width="6" height="6" rx="1" transform="rotate(135 131.971 98.2725)" fill="white"/>
<rect x="43" y="57" width="96" height="24" rx="10" fill="#EFDCEF"/>
</svg>
