<svg width="182" height="182" viewBox="0 0 182 182" fill="none" xmlns="http://www.w3.org/2000/svg">
<circle cx="91" cy="91" r="91" transform="rotate(-90 91 91)" fill="#10436F"/>
<rect x="82.3818" y="67.4209" width="48" height="6" transform="rotate(105 82.3818 67.4209)" fill="white"/>
<rect x="114.258" y="75.9619" width="48" height="6" rx="1" transform="rotate(-165 114.258 75.9619)" fill="white"/>
<rect x="74.9092" y="122.358" width="6" height="18" rx="1" transform="rotate(15 74.9092 122.358)" fill="white"/>
<path d="M64.164 112.232L69.4143 109.497L79.5748 126.196L73.9465 129.347L64.164 112.232Z" fill="white"/>
<path fill-rule="evenodd" clip-rule="evenodd" d="M88.8884 116.55L100.735 72.3381L106.531 73.891L94.1073 120.255L94.1075 120.256L77.3146 130.768L77.8069 123.135L88.8884 116.55Z" fill="white"/>
<path d="M80.8301 73.2158L85.6597 74.5099C86.1932 74.6529 86.5098 75.2012 86.3668 75.7347L85.3315 79.5984C85.1886 80.1318 84.6403 80.4484 84.1068 80.3055L79.2772 79.0114L80.8301 73.2158Z" fill="white"/>
<path d="M77.7236 84.8076L82.5533 86.1017C83.0867 86.2447 83.4033 86.793 83.2604 87.3265L82.2251 91.1902C82.0822 91.7236 81.5338 92.0402 81.0003 91.8973L76.1707 90.6032L77.7236 84.8076Z" fill="white"/>
<path d="M74.6182 96.3984L79.4478 97.6925C79.9813 97.8355 80.2978 98.3838 80.1549 98.9173L79.1196 102.781C78.9767 103.314 78.4283 103.631 77.8949 103.488L73.0652 102.194L74.6182 96.3984Z" fill="white"/>
<path d="M91.2842 57.3818L97.0797 58.9348L95.5268 64.7303L89.7313 63.1774L91.2842 57.3818Z" fill="white"/>
<path fill-rule="evenodd" clip-rule="evenodd" d="M95.4762 53.3287C97.0766 53.7575 98.7216 52.8078 99.1504 51.2074C99.5792 49.607 98.6295 47.962 97.0291 47.5331C95.4287 47.1043 93.7837 48.0541 93.3549 49.6544C92.926 51.2548 93.8758 52.8999 95.4762 53.3287ZM93.9233 59.1242C98.7245 60.4107 103.659 57.5615 104.946 52.7603C106.232 47.9591 103.383 43.0241 98.582 41.7376C93.7808 40.4511 88.8458 43.3003 87.5593 48.1015C86.2728 52.9027 89.1221 57.8378 93.9233 59.1242Z" fill="white"/>
<rect x="104" y="135" width="6" height="18" rx="1" transform="rotate(-90 104 135)" fill="white"/>
<rect x="110" y="123" width="6" height="18" rx="1" fill="white"/>
</svg>
