<svg width="182" height="182" viewBox="0 0 182 182" fill="none" xmlns="http://www.w3.org/2000/svg">
<circle cx="91" cy="91" r="91" transform="rotate(-90 91 91)" fill="#10436F"/>
<rect x="87" y="101" width="6" height="18" rx="1" fill="white"/>
<rect x="99" y="107" width="6" height="18" rx="1" transform="rotate(90 99 107)" fill="white"/>
<path fill-rule="evenodd" clip-rule="evenodd" d="M112.156 92.5406L100.22 72.8836L94.9282 64.4211L100.431 56.8097L108.481 69.7673L117.856 85.3082C117.856 85.3082 124.572 95.8897 124.201 105.843C124.043 110.066 122.615 113.983 120.256 117.31C120.172 105.087 112.156 92.5406 112.156 92.5406Z" fill="#EFDCEF"/>
<path fill-rule="evenodd" clip-rule="evenodd" d="M113.075 86.3571L100.413 67.0712L89.5597 51L78.7063 67.0712L66.0444 86.3571C66.0444 86.3571 57 99.4758 57 112.071C57 128.048 71.5776 141 89.5597 141C107.542 141 122.119 128.048 122.119 112.071C122.119 99.4758 113.075 86.3571 113.075 86.3571ZM108.036 91.5147L98.0874 76.2654L89.5597 63.558L81.032 76.2654L71.0834 91.5147C71.0834 91.5147 63.9771 101.888 63.9771 111.847C63.9771 124.48 75.4309 134.721 89.5597 134.721C103.688 134.721 115.142 124.48 115.142 111.847C115.142 101.888 108.036 91.5147 108.036 91.5147Z" fill="white"/>
<rect x="56" y="68" width="6" height="6" rx="3" fill="white"/>
<rect x="67" y="45" width="6" height="6" rx="3" fill="white"/>
<rect x="119" y="59" width="6" height="6" rx="3" fill="white"/>
</svg>
