<svg width="182" height="182" viewBox="0 0 182 182" fill="none" xmlns="http://www.w3.org/2000/svg">
<circle cx="91" cy="91" r="91" transform="rotate(-90 91 91)" fill="#10436F"/>
<rect x="57" y="129" width="75" height="24" rx="10" transform="rotate(-90 57 129)" fill="#EFDCEF"/>
<rect x="117" y="61" width="60" height="6" rx="1" transform="rotate(90 117 61)" fill="white"/>
<rect x="105" y="67" width="48" height="6" rx="1" transform="rotate(90 105 67)" fill="white"/>
<rect x="93" y="73" width="36" height="6" rx="1" transform="rotate(90 93 73)" fill="white"/>
<path d="M140 88C140.552 88 141 88.4477 141 89L141 93C141 93.5523 140.552 94 140 94L135 94L135 88L140 88Z" fill="white"/>
<rect x="135" y="88" width="6" height="6" transform="rotate(90 135 88)" fill="white"/>
<path d="M129 88L129 94L124 94C123.448 94 123 93.5523 123 93L123 89C123 88.4477 123.448 88 124 88L129 88Z" fill="white"/>
<path d="M135 94L135 99C135 99.5523 134.552 100 134 100L130 100C129.448 100 129 99.5523 129 99L129 94L135 94Z" fill="white"/>
<path d="M134 82C134.552 82 135 82.4477 135 83L135 88L129 88L129 83C129 82.4477 129.448 82 130 82L134 82Z" fill="white"/>
</svg>
