<svg
  class="fff"
  width="{{ .width }}"
  viewBox="0 0 700 600"
  xmlns="http://www.w3.org/2000/svg"
>
  <g class="hero-semi-circle">
    <path
      fill-rule="evenodd"
      clip-rule="evenodd"
      d="M179.256 126.073C178.678 125.712 178.098 125.355 177.515 125C129.485 175.417 100 243.661 100 318.792C100 473.984 225.808 599.792 381 599.792V597.792C226.913 597.792 102 472.879 102 318.792C102 244.043 131.395 176.161 179.256 126.073Z"
      fill="url(#semi-circle-hero-linear)"
    />
  </g>
  <g class="hero-stripped-circle">
    <svg
      width="287"
      height="288"
      x="328"
      y="75"
      viewBox="0 0 287 288"
      fill="#D6D7FE"
    >
      <path
        d="M238.668 36.5683C240.763 38.4341 242.816 40.369 244.826 42.3784C244.972 42.5248 245.116 42.6712 245.261 42.8162C244.75 42.6588 244.236 42.5041 243.722 42.3494C214.836 33.6957 190.409 20.5465 170.459 2.91719C173.282 3.45856 176.093 4.08418 178.885 4.79405C195.784 18.4031 215.709 28.9918 238.668 36.5683Z"
      />
      <path
        d="M267.358 71.5589C268.626 73.7299 269.832 75.9272 270.975 78.1479C257.671 70.443 242.93 64.1674 226.752 59.3198C188.157 47.7575 157.526 28.1726 134.894 0.596846C136.574 0.497409 138.254 0.429743 139.935 0.389692C161.868 26.1314 191.177 44.4858 227.898 55.4888C242.136 59.7549 255.29 65.112 267.358 71.5589Z"
      />
      <path
        d="M283.039 110.883C283.555 113.082 284.019 115.289 284.431 117.504C264.396 98.9329 239.519 85.201 209.781 76.2903C165.42 63.0003 131.578 39.1106 108.314 4.67091C109.701 4.32288 111.092 3.99555 112.487 3.68895C135.211 36.6937 168.007 59.5987 210.928 72.4592C239.262 80.9473 263.303 93.7608 283.039 110.883Z"
      />
      <path
        d="M286.752 149.307C286.676 151.319 286.557 153.327 286.397 155.335C263.946 125.91 232.765 105.233 192.81 93.2614C144.61 78.8224 108.833 51.8681 85.5442 12.4676C86.7774 11.9248 88.0149 11.4 89.2606 10.8945C112.048 49.1833 146.923 75.3379 193.957 89.4304C233.088 101.153 264.031 121.124 286.752 149.307Z"
      />
      <path
        d="M281.518 182.714C281.038 184.429 280.524 186.136 279.978 187.836C257.181 150.055 222.491 124.209 175.84 110.231C125.245 95.0742 88.3345 66.127 65.1919 23.47C66.3147 22.7394 67.4444 22.0268 68.5824 21.3307C91.2168 63.1923 127.323 91.5207 176.987 106.4C223.338 120.286 258.202 145.744 281.518 182.714Z"
      />
      <path
        d="M268.383 214.353C245.827 171.349 209.352 142.326 158.87 127.202C107.202 111.725 69.8086 81.8659 46.771 37.7145C47.7902 36.7865 48.8205 35.875 49.8591 34.98C72.3608 78.6674 109.05 108.101 160.016 123.371C210.615 138.53 247.526 167.48 270.668 210.142C269.931 211.556 269.17 212.958 268.383 214.353Z"
      />
      <path
        d="M32.9797 52.1301C55.4897 95.718 92.1501 125.092 143.045 140.342C195.658 156.102 233.472 186.776 256.395 232.271C255.493 233.422 254.572 234.561 253.63 235.688C231.283 190.277 194.07 159.804 141.899 144.173C90.5591 128.793 53.3131 99.2149 30.241 55.5234C31.1346 54.3813 32.0474 53.2502 32.9797 52.1301Z"
      />
      <path
        d="M18.2986 73.3962C40.9702 114.624 76.8697 142.571 126.074 157.313C179.008 173.17 216.961 204.121 239.841 250.073C238.818 251.006 237.779 251.92 236.735 252.818C214.396 207.318 177.159 176.793 124.928 161.144C75.5977 146.365 39.2784 118.478 16.0433 77.5573C16.7711 76.1611 17.521 74.7731 18.2986 73.3962Z"
      />
      <path
        d="M6.80076 99.6521C29.6077 135.819 63.6883 160.675 109.105 174.282C160.964 189.816 198.446 219.841 221.462 264.266C220.339 264.996 219.206 265.709 218.066 266.405C195.558 222.773 158.884 193.371 107.958 178.113C62.821 164.591 28.5733 140.094 5.27882 104.676C5.75391 102.994 6.26353 101.319 6.80076 99.6521Z"
      />
      <path
        d="M0.381334 131.541C22.6842 159.714 53.2569 179.605 92.134 191.253C141.609 206.075 177.999 234.084 201.226 275.204C199.997 275.745 198.759 276.27 197.518 276.774C174.785 236.765 139.302 209.559 90.9877 195.084C52.8854 183.67 22.5447 164.435 0.000139486 137.413C0.0871466 135.454 0.214225 133.495 0.381334 131.541Z"
      />
      <path
        d="M174.55 283.934C151.765 249.256 118.273 225.315 74.0167 212.055C46.3014 203.752 22.6921 191.313 3.20382 174.747C2.73563 172.613 2.31717 170.471 1.94704 168.322C21.7308 186.23 46.1302 199.526 75.163 208.224C120.849 221.91 155.375 246.841 178.684 282.955C177.31 283.302 175.931 283.628 174.55 283.934Z"
      />
      <path
        d="M14.2165 206.511C27.4554 214.152 42.114 220.377 58.1924 225.195C98.2351 237.191 129.704 257.824 152.562 287.054C150.921 287.159 149.278 287.233 147.635 287.283C125.437 259.879 95.252 240.472 57.0461 229.026C42.7894 224.754 29.6181 219.389 17.5351 212.929C16.3709 210.812 15.2647 208.673 14.2165 206.511Z"
      />
      <path
        d="M37.8631 241.132C38.9763 241.483 40.0949 241.828 41.2219 242.165C72.0293 251.395 97.7642 265.739 118.406 285.176C115.829 284.723 113.258 284.197 110.703 283.603C92.2427 267.586 69.9191 255.43 43.7202 247.119C43.1043 246.525 42.4938 245.926 41.8862 245.318C40.5106 243.943 39.171 242.548 37.8631 241.132Z"
      />
    </svg>
  </g>
  <g class="hero-frame-ellipses">
    <g fill="#152A5B" fill-opacity="0.4" filter="url(#ellipse-shadow)">
      <circle cx="138" cy="23" r="12" />
      <circle cx="632" cy="539" r="12" />
      <circle cx="663" cy="436" r="24" />
      <circle cx="98" cy="297" r="42" />
      <circle cx="204" cy="134" r="63" />
    </g>
    <g fill="url(#main-linear)">
      <circle cx="138" cy="23" r="12" />
      <circle cx="632" cy="539" r="12" />
      <circle cx="663" cy="436" r="24" />
      <circle cx="98" cy="297" r="42" />
      <circle cx="204" cy="134" r="63" />
    </g>
  </g>

  <g class="hero-main-ellipse">
    <circle
      cx="384"
      cy="325"
      r="220"
      fill="#152A5B"
      fill-opacity="0.5"
      filter="url(#ellipse-shadow)"
    />
    <circle cx="384" cy="321" r="220" fill="url(#main-linear)" />
  </g>

  <defs>
    <filter
      id="ellipse-shadow"
      filterUnits="userSpaceOnUse"
      color-interpolation-filters="sRGB"
    >
      <feBlend
        mode="normal"
        in="SourceGraphic"
        in2="BackgroundImageFix"
        result="shape"
      />
      <feOffset dy="4" />
      <feGaussianBlur stdDeviation="12" />
    </filter>
    <linearGradient id="main-linear" x1="33%" y1="5.6%" x2="67%" y2="100%">
      <stop offset="20%" stop-color="#FFF" />
      <stop offset="67%" stop-color="#EBEFFA" />
      <stop offset="100%" stop-color="#DAE2F6" />
    </linearGradient>
    <linearGradient
      id="semi-circle-hero-linear"
      x1="-44.5"
      y1="82.5"
      x2="235.5"
      y2="475"
      gradientUnits="userSpaceOnUse"
    >
      <stop stop-color="#DDDDF1" stop-opacity="0.4" />
      <stop offset="1" stop-color="#DDDDF1" stop-opacity="0" />
    </linearGradient>
  </defs>
</svg>

<picture>
  <source
    srcset="{{ .Site.BaseURL }}/images/pictures/infirmière/infirmière-esthétique-344px.webp"
  />
  <img
    class="hero-img"
    src="{{ .Site.BaseURL }}/images/pictures/infirmière/infirmière-esthétique-344px.png"
    alt="infirmière esthétique nassil"
  />
</picture>
<picture>
  <source
    srcset="{{ .Site.BaseURL }}/images/pictures/flacon/flacon-45deg-147px.webp"
  />
  <img
    class="hero-flacon-1"
    src="{{ .Site.BaseURL }}/images/pictures/flacon/flacon-45deg-147px.png"
    alt="flacon injection"
  />
</picture>
<picture>
  <source
    srcset="{{ .Site.BaseURL }}/images/pictures/flacon/flacon-15deg-72px.webp"
  />
  <img
    class="hero-flacon-2"
    src="{{ .Site.BaseURL }}/images/pictures/flacon/flacon-15deg-72px.png"
    alt="flacon injection"
  />
</picture>
<svg class="medi-note" viewBox="0 0 100 115" xmlns="http://www.w3.org/2000/svg">
  <rect
    x="24"
    y="24"
    width="90"
    height="80"
    rx="5"
    fill="#152A5B"
    fill-opacity="0.5"
    filter="url(#ellipse-shadow)"
  />
  <rect width="100" height="115" rx="5" fill="white" />
  <rect x="25" width="50" height="6" rx="3" fill="#3635A3" />
  <g fill="white">
    <circle cx="50" cy="29" r="15" fill="#FF1B96" />
    <rect x="41" y="26" rx="1" width="18" height="6" />
    <rect x="47" y="20" rx="1" width="6" height="18" />
  </g>
  <g fill="#EFAC02">
    <circle cx="16" cy="55" r="3" />
    <circle cx="16" cy="65" r="3" />
    <circle cx="16" cy="75" r="3" />
    <circle cx="16" cy="85" r="3" />
    <circle cx="16" cy="95" r="3" />
  </g>
  <g fill="#A0A2A6">
    <rect x="25" y="54" width="62" height="3" />
    <rect x="25" y="64" width="62" height="3" />
    <rect x="25" y="74" width="62" height="3" />
    <rect x="25" y="84" width="62" height="3" />
    <rect x="25" y="94" width="62" height="3" />
  </g>
</svg>
