<svg width="30" height="30" viewBox="0 0 30 30" fill="fill="hsla(208, 75%, 30%, 1)" xmlns="http://www.w3.org/2000/svg">
<path fill-rule="evenodd" clip-rule="evenodd" d="M29.2678 13.2322C30.2441 14.2086 30.2441 15.7915 29.2678 16.7678L16.7678 29.2678C15.7914 30.2441 14.2085 30.2441 13.2322 29.2678L0.73223 16.7678C-0.244074 15.7914 -0.244075 14.2085 0.73223 13.2322L13.2322 0.732227C14.2086 -0.244076 15.7915 -0.244077 16.7678 0.732227L29.2678 13.2322ZM9.14407 20.022L9.14407 13.7958C9.14407 13.1055 9.7037 12.5458 10.3941 12.5458L12.1345 12.5458L12.1345 15.5362L12.1345 20.022L9.14407 20.022ZM18.24 12.5457L12.1345 12.5457L12.1345 15.5362L18.24 15.5362L18.24 19.2742L20.8567 16.6887L23.4733 14.1032L23.4733 14.1032L23.4733 14.1032L23.4733 14.1032L23.4733 14.1032L20.8567 11.5177L18.24 8.93223L18.24 12.5457Z"/>
</svg>
